<?xml version="1.0" encoding="UTF-8" standalone="no"?>
<!-- Created with Inkscape (http://www.inkscape.org/) -->

<svg
   width="188mm"
   height="188mm"
   viewBox="0 0 188 188"
   version="1.1"
   id="svg1"
   inkscape:version="1.3.2 (091e20e, 2023-11-25, custom)"
   sodipodi:docname="logoBrightTight.svg"
   inkscape:export-filename="logoBright_512.png"
   inkscape:export-xdpi="65.019997"
   inkscape:export-ydpi="65.019997"
   xmlns:inkscape="http://www.inkscape.org/namespaces/inkscape"
   xmlns:sodipodi="http://sodipodi.sourceforge.net/DTD/sodipodi-0.dtd"
   xmlns="http://www.w3.org/2000/svg"
   xmlns:svg="http://www.w3.org/2000/svg">
  <sodipodi:namedview
     id="namedview1"
     pagecolor="#ffffff"
     bordercolor="#000000"
     borderopacity="0.25"
     inkscape:showpageshadow="2"
     inkscape:pageopacity="0.0"
     inkscape:pagecheckerboard="0"
     inkscape:deskcolor="#d1d1d1"
     inkscape:document-units="mm"
     inkscape:zoom="0.72426345"
     inkscape:cx="236.10193"
     inkscape:cy="359.67575"
     inkscape:window-width="1920"
     inkscape:window-height="1009"
     inkscape:window-x="-8"
     inkscape:window-y="-8"
     inkscape:window-maximized="1"
     inkscape:current-layer="layer1"
     showguides="true" />
  <defs
     id="defs1" />
  <g
     inkscape:label="Layer 1"
     inkscape:groupmode="layer"
     id="layer1"
     transform="translate(-5.9999997,-5.9999995)">
    <g
       id="g7"
       transform="matrix(1.6909941,0,0,1.6794139,-66.983521,-62.720758)"
       style="display:inline">
      <path
         style="fill:#1da200;fill-opacity:1;fill-rule:nonzero;stroke-width:0.257835"
         d="m 75.635056,145.11385 c 0,0 -38.763035,-5.97682 -31.530195,-68.285145 7.232843,-62.308323 81.627779,50.042915 67.420419,59.855245 -14.207374,9.81234 -35.890224,8.4299 -35.890224,8.4299 z"
         id="path5"
         sodipodi:nodetypes="cssc"
         inkscape:label="out_left" />
      <path
         style="fill:#27ca00;fill-opacity:1;fill-rule:nonzero;stroke-width:0.232634"
         d="m 90.996842,130.1442 c 0,0 -34.193365,-5.51582 -27.813185,-63.018205 6.380183,-57.5023965 72.004913,46.183025 59.472413,55.238515 -12.53251,9.0555 -31.659228,7.77969 -31.659228,7.77969 z"
         id="path5-9"
         sodipodi:nodetypes="cssc"
         inkscape:label="middle_low" />
      <path
         style="fill:#33f100;fill-opacity:1;fill-rule:nonzero;stroke-width:0.215652"
         d="m 110.4796,119.84738 c 0,0 -32.981659,-4.91401 -26.827574,-56.142595 6.154087,-51.228592 69.453264,41.144225 57.364884,49.211715 -12.0884,8.0675 -30.53731,6.93088 -30.53731,6.93088 z"
         id="path5-9-9"
         sodipodi:nodetypes="cssc"
         inkscape:label="middle" />
      <path
         style="fill:#178700;fill-opacity:1;fill-rule:nonzero;stroke-width:0.257835"
         d="m 121.86241,145.40474 c 0,0 38.76303,-5.97682 31.53019,-68.285145 -7.23284,-62.308321 -81.627775,50.042915 -67.420414,59.855245 14.207374,9.81234 35.890224,8.4299 35.890224,8.4299 z"
         id="path5-6"
         sodipodi:nodetypes="cssc"
         inkscape:label="out_right" />
    </g>
  </g>
</svg>
